HIERARCHY
ROOT Hips
{
  OFFSET 0.0 0.0 0.0
  CHANNELS 6 XPOSITION YPOSITION ZPOSITION ZROTATION XROTATION YROTATION 
  JOINT RightUpLeg
  {
    OFFSET -0.089458 -0.0866707 0.00101652
    CHANNELS 3 ZROTATION XROTATION YROTATION 
    JOINT RightLeg
    {
      OFFSET 0.0 -0.444227 0.013727
      CHANNELS 3 ZROTATION XROTATION YROTATION 
      JOINT RightFoot
      {
        OFFSET 0.00253549 -0.420924 -0.0146059
        CHANNELS 3 ZROTATION XROTATION YROTATION 
        JOINT RightToes
        {
          OFFSET 0.0004 -0.0441509 0.084991
          CHANNELS 3 ZROTATION XROTATION YROTATION 
          End Site
          {
            OFFSET -0.0008 -0.00137448 0.0977979
          }
        }
      }
    }
  }
  JOINT Spine
  {
    OFFSET 0.0 0.118905 0.0
    CHANNELS 3 ZROTATION XROTATION YROTATION 
    JOINT Spine1
    {
      OFFSET 0.0 0.256574 0.00127663
      CHANNELS 3 ZROTATION XROTATION YROTATION 
      JOINT HEad
      {
        OFFSET 0.0 0.0873416 0.00011341
        CHANNELS 3 ZROTATION XROTATION YROTATION 
        End Site
        {
          OFFSET -0.0029 0.127742 0.0251395
        }
      }
      JOINT LeftShoulder1
      {
        OFFSET 0.0899 -0.00362252 -0.0022
        CHANNELS 3 ZROTATION XROTATION YROTATION 
        JOINT LeftArm
        {
          OFFSET 0.102827 -3.37999e-005 0.00322123
          CHANNELS 3 ZROTATION XROTATION YROTATION 
          JOINT LeftForeArm
          {
            OFFSET 0.262597 0.00099144 -0.0142434
            CHANNELS 3 ZROTATION XROTATION YROTATION 
            JOINT LeftHand
            {
              OFFSET 0.220902 0.00085362 0.0102216
              CHANNELS 3 ZROTATION XROTATION YROTATION 
              End Site
              {
                OFFSET 0.13419 -0.006 0.0150291
              }
            }
          }
        }
      }
      JOINT RightShoulder
      {
        OFFSET -0.0899 -0.00362252 -0.0022
        CHANNELS 3 ZROTATION XROTATION YROTATION 
        JOINT RightArm
        {
          OFFSET -0.102827 -3.38e-005 0.00322123
          CHANNELS 3 ZROTATION XROTATION YROTATION 
          JOINT RightForeArm
          {
            OFFSET -0.26364 0.00099144 -0.0142434
            CHANNELS 3 ZROTATION XROTATION YROTATION 
            JOINT RightHand
            {
              OFFSET -0.220324 0.00085362 0.0102216
              CHANNELS 3 ZROTATION XROTATION YROTATION 
              End Site
              {
                OFFSET -0.133284 -0.006 0.0150291
              }
            }
          }
        }
      }
    }
  }
  JOINT LeftUpLeg
  {
    OFFSET 0.089458 -0.0866707 0.00101652
    CHANNELS 3 ZROTATION XROTATION YROTATION 
    JOINT LeftLeg
    {
      OFFSET 0.0 -0.444227 0.013727
      CHANNELS 3 ZROTATION XROTATION YROTATION 
      JOINT LeftFoot
      {
        OFFSET -0.00253549 -0.420924 -0.0146059
        CHANNELS 3 ZROTATION XROTATION YROTATION 
        JOINT LeftToes
        {
          OFFSET -0.0004 -0.0441509 0.084991
          CHANNELS 3 ZROTATION XROTATION YROTATION 
          End Site
          {
            OFFSET 0.0008 -0.00047448 0.0977979
          }
        }
      }
    }
  }
}
MOTION
Frames: 5
Frame Time: 0.033333
-1.03638 1.11857 -1.08794 -0.20170609166 0.344781866165 90.0035746934 2.48005278669 -2.41157651172 0.647371305949 -1.3616521055 13.3951023304 -13.7514051249 -1.99689865174 -12.2989150252 -0.284748612146 0.0462047989973 0.000530889001377 0.662642008108 -5.2135666364 2.05566688002 -1.21456003302 3.15110713326 7.15500649996 -1.99620624131 -1.41627632995 19.7261242004 -0.200262667249 -32.2313724103 -3.97818904056 13.8715131476 -77.0757887834 -43.3811951925 -38.7544216337 -172.687249314 65.2840067663 174.02305673 9.8352333482 8.90505976721 -7.33463620626 31.72407377 -1.1894702936 -7.22589020316 52.3654450267 -16.8022687733 17.9898730379 9.51662209889 64.6649730614 5.91145615589 -1.55714311188 9.85377987311 1.03250176758 -0.0556796587583 -6.63186950482 0.859907529652 1.43665622705 17.7539822096 14.5368043087 0.754697910359 -13.3566014078 0.104034593302 -1.34472748677e-009 8.75219602313e-006 -1.46806309585e-008 
-1.03514223494 1.11683538194 -1.08311608716 -0.292785023396 0.128918246439 90.5650777149 2.9504325469 -2.60198297587 0.65919980621 -1.11488142622 13.8730439638 -14.3969271571 -2.19146939685 -12.7966659148 -0.305822920707 0.0462047989973 0.000530889001377 0.662642008108 -4.68143086703 2.72651439992 -1.28129023416 3.1570698884 6.52126825159 -2.03649069703 -1.18723063189 19.3963865729 -0.415492706888 -31.9305742943 -3.81151705689 13.5193101742 -77.2305950209 -43.2653756748 -38.7496985579 -172.549634662 65.6207009414 173.810583206 8.82522680864 9.01278038816 -7.40635319254 31.9476190314 -1.19880139923 -7.22780777877 52.0874460822 -17.4306581298 17.4843041431 9.59035740607 64.8794683221 5.72112951957 -1.58109487776 9.85280913248 0.969291461745 0.548193063858 -8.00531297143 0.723818144874 1.49476758323 20.283406165 14.050890137 -0.017938896548 -13.9618944796 0.0678386728063 -1.34472748677e-009 8.75219602313e-006 -1.46806309585e-008 
-1.03345085785 1.11477986111 -1.07819268307 -0.217992410932 -0.101111672544 91.0606489203 3.53537549695 -2.69660500154 0.786234814748 -0.9610601233 14.56004915 -15.1161426616 -2.36764473498 -13.4076058454 -0.33117183379 0.0462047989973 0.000530889001377 0.662642008108 -4.23349852353 3.32109816198 -1.3525802269 3.40718607972 6.36531966491 -2.1482927829 -0.948769091167 18.9265002939 -0.45192112062 -31.9381421439 -3.83228339328 13.5712076591 -77.7181817352 -43.1570932708 -39.2997371068 -172.394343481 66.0061831578 173.786349695 9.49485513978 8.86822114192 -8.36135707248 31.7158024109 -1.11028011987 -7.01761681791 51.8629855756 -17.320666471 17.2430891824 9.81218658239 64.4741580666 5.54191688169 -1.57966619428 9.852656307 0.942499831282 1.21537111799 -9.73198308606 0.275912428434 1.51765661435 23.8028353046 13.8157207474 -1.25762619001 -14.1195907409 0.000174483370956 -1.34472748677e-009 8.75219602313e-006 -1.46806309585e-008 
-1.03169872142 1.1123784375 -1.07399760908 -0.198262115513 -0.289993290294 91.545360125 4.00065395963 -3.01498722607 0.814309773723 -0.833876451426 15.5643721183 -15.7321847436 -2.51277536923 -14.1620659798 -0.360232367717 0.0462047989973 0.000530889001377 0.662642008108 -3.76022788575 4.08492910248 -1.29793625894 3.73766819781 6.02988523279 -2.13161004585 -0.435698354124 18.087363743 -0.806016163162 -31.9915303175 -3.87895322211 13.6791186716 -77.9375810717 -42.7734517904 -39.5616065596 -172.104470253 66.7289332852 173.285327998 10.023826824 8.78279767352 -8.64213419643 31.6685443321 -1.1021012885 -7.00005938977 51.468470434 -17.2501584281 17.1600767707 9.95482739924 64.1327237402 5.37827366003 -1.46989107378 9.85663147709 0.93744196948 1.56294354332 -12.0117431367 -0.433703111794 1.64568456164 28.0369617787 13.883457441 -1.3041158726 -13.6384773385 -0.00321816239704 -1.34472748677e-009 8.75219602313e-006 -1.46806309585e-008 
-1.02866924563 1.10964493056 -1.07033940735 0.0399329577816 -0.326758597771 92.1246694496 4.35065163572 -3.07901918232 0.689869756821 -0.748542469174 16.7208460882 -16.2769076978 -2.56190363927 -15.0885333294 -0.390768115784 0.0462047989973 0.000530889001377 0.662642008108 -3.35888362224 4.73108975739 -1.26391156487 4.14258486369 6.05124238055 -2.14599805278 0.124670242301 17.4376573662 -1.21919847852 -32.0186427535 -3.94407992962 13.8415354474 -78.5078813769 -42.6629393296 -39.9327283032 -172.043845494 66.9773199446 173.425346876 10.155585442 8.77298354546 -8.56406598799 31.4486737125 -1.06043211865 -6.90946333373 51.4351117901 -17.6365934559 17.1192902961 9.69896253652 64.1535284964 5.51167664603 -1.48634617343 9.85652560916 1.00576712651 1.42819703776 -14.2752328229 -1.61531124401 1.78386014233 32.4423911047 14.3143356559 0.878917760381 -12.6271261054 0.0933059002405 -1.34472748677e-009 8.75219602313e-006 -1.46806309585e-008 
